<?xml version="1.0" encoding="UTF-8"?>
<svg width="137px" height="129px" viewBox="0 0 137 129" version="1.1" xmlns="http://www.w3.org/2000/svg" xmlns:xlink="http://www.w3.org/1999/xlink">
    <title>GuEe-logo</title>
    <desc>Created with GuEe studio</desc>
    <g id="GuEe-logo" stroke="none" stroke-width="1" fill="none">
        <path stroke="none" fill="#666" fill-opacity="1"
            d="M80,25 v -21 A4,4 0 0,1 84,0 h 16 A4,4 0 0,1 104,4 v 21
               h 29 A4,4 0 0,1 137,29 v 17 A4,4 0 0,1 133,50 h -29
               v 52 L111,109 L122,111 A1,1 0 0,1 122,116 L123,115.7 L104,129 h -20 A4,4 0 0,1 80,126 v -76
               h -37 A0.66,1 0 1,0 41,104 v -35 A4,4 0 0,1 45,66 h 16 A4,4 0 0,1 65,70 v 55 A4,4 0 0,1 61,129 h -20 A0.79,1 0 0,1 41,25 Z"></path>
    </g>
</svg>